<svg id="Logo" xmlns="http://www.w3.org/2000/svg" viewBox="0 0 281.51 274.19" width="282" height="274"><defs><linearGradient id="linear-gradient" x1="140.76" y1="0" x2="140.76" y2="267.19" gradientUnits="userSpaceOnUse"><stop offset="0" stop-color="#fc9c60"/><stop offset=".11" stop-color="#f9935d"/><stop offset=".28" stop-color="#f47a57"/><stop offset=".5" stop-color="#eb534d"/><stop offset=".5" stop-color="#eb534d"/><stop offset=".57" stop-color="#e5534f"/><stop offset=".67" stop-color="#d45357"/><stop offset=".77" stop-color="#b95365"/><stop offset=".89" stop-color="#945377"/><stop offset="1" stop-color="#68548d"/></linearGradient><style>.cls-1{fill:#fff}</style></defs><g id="House"><path d="M279.63 108.29L147 2.19a10 10 0 00-12.49 0L1.89 108.29c-3.69 2.95-1.6 8.9 3.12 8.9h21.87v140c0 5.52 4.48 10 10 10h210c5.52 0 10-4.48 10-10v-140h19.62c4.73 0 6.81-5.95 3.12-8.9z" fill="url(#linear-gradient)"/></g><g id="Truck"><ellipse class="cls-1" cx="95.05" cy="202.19" rx="13.21" ry="10.98" transform="rotate(-54.31 95.029 202.182)"/><ellipse class="cls-1" cx="179.58" cy="202.19" rx="13.21" ry="10.98" transform="rotate(-54.31 179.562 202.19)"/><path class="cls-1" d="M194.65 135.69h-19.51l3.28-20H70.38v5h23.26l-.82 5H70.38v5H91l-.82 5h-19.8v5h17.98l-.82 5H70.38v5h15.34l-.81 5H70.38v5h8.71l-7.05 43h6.57c.04-.5.1-1 .18-1.5 1.58-9.65 10.16-17.5 19.12-17.5s14.97 7.85 13.39 17.5c-.08.5-.18 1-.31 1.5h52.15c.04-.5.1-1 .18-1.5 1.58-9.65 10.16-17.5 19.12-17.5s14.97 7.85 13.39 17.5c-.08.5-.18 1-.31 1.5h7.5l7.86-48-16.23-20zm-22.78 20l2.45-15h17.65l12.18 15h-32.28z"/></g></svg>