<svg id="Logo" xmlns="http://www.w3.org/2000/svg" viewBox="0 0 281.5 267.19" width="282" height="267"><defs><style>.cls-1{fill:#fff}</style></defs><g id="Truck"><ellipse class="cls-1" cx="95.04" cy="202.17" rx="13.21" ry="10.98" transform="rotate(-54.31 95.049 202.167)"/><ellipse class="cls-1" cx="179.57" cy="202.18" rx="13.21" ry="10.98" transform="rotate(-54.31 179.567 202.18)"/><path class="cls-1" d="M194.65 135.69h-19.51l3.28-20H70.38v5h23.26l-.82 5H70.38v5H91l-.82 5h-19.8v5h17.98l-.82 5H70.38v5h15.34l-.81 5H70.38v5h8.71l-7.05 43h6.57c.04-.5.1-1 .18-1.5 1.58-9.65 10.16-17.5 19.12-17.5s14.97 7.85 13.39 17.5c-.08.5-.18 1-.31 1.5h52.15c.04-.5.1-1 .18-1.5 1.58-9.65 10.16-17.5 19.12-17.5s14.97 7.85 13.39 17.5c-.08.5-.18 1-.31 1.5h7.5l7.86-48-16.23-20zm-22.78 20l2.45-15h17.65l12.18 15h-32.28z"/></g></svg>